HIERARCHY
ROOT Hips
{
	OFFSET -4.579762 108.000748 -0.688670
	CHANNELS 6 Xposition Yposition Zposition Xrotation Yrotation Zrotation
	JOINT Chest
	{
		OFFSET 0.745478 13.514610 1.718628
		CHANNELS 3 Xrotation Yrotation Zrotation
		JOINT Chest2
		{
			OFFSET -0.019343 21.411079 0.794917
			CHANNELS 3 Xrotation Yrotation Zrotation
			JOINT Chest3
			{
				OFFSET 0.990260 14.781357 -1.830536
				CHANNELS 3 Xrotation Yrotation Zrotation
				JOINT Neck
				{
					OFFSET 0.864874 17.258438 -0.120456
					CHANNELS 3 Xrotation Yrotation Zrotation
					JOINT Head
					{
						OFFSET -1.878515 10.283981 0.733946
						CHANNELS 3 Xrotation Yrotation Zrotation
						End Site
						{
							OFFSET -1.845392 10.294357 0.669628
						}
					}
				}
				JOINT LeftCollar
				{
					OFFSET 4.323064 13.082626 3.458408
					CHANNELS 3 Xrotation Yrotation Zrotation
					JOINT LeftUpArm
					{
						OFFSET 16.522257 5.676636 -1.813879
						CHANNELS 3 Xrotation Yrotation Zrotation
						JOINT LeftLowArm
						{
							OFFSET -3.635471 24.370911 23.077461
							CHANNELS 3 Xrotation Yrotation Zrotation
							JOINT LeftHand
							{
								OFFSET -13.269412 25.736938 7.904428
								CHANNELS 3 Xrotation Yrotation Zrotation
								End Site
								{
									OFFSET -2.900091 5.624969 1.727558
								}
							}
						}
					}
				}
				JOINT RightCollar
				{
					OFFSET -3.963539 13.488144 2.041778
					CHANNELS 3 Xrotation Yrotation Zrotation
					JOINT RightUpArm
					{
						OFFSET -15.692667 3.459641 -7.089942
						CHANNELS 3 Xrotation Yrotation Zrotation
						JOINT RightLowArm
						{
							OFFSET -11.200813 21.560181 23.440012
							CHANNELS 3 Xrotation Yrotation Zrotation
							JOINT RightHand
							{
								OFFSET 11.521933 24.340134 13.257383
								CHANNELS 3 Xrotation Yrotation Zrotation
								End Site
								{
									OFFSET 2.518225 5.319794 2.897520
								}
							}
						}
					}
				}
			}
		}
	}
	JOINT LeftUpLeg
	{
		OFFSET 9.430920 -0.934525 3.256310
		CHANNELS 3 Xrotation Yrotation Zrotation
		JOINT LeftLowLeg
		{
			OFFSET -7.983277 -45.226555 11.611007
			CHANNELS 3 Xrotation Yrotation Zrotation
			JOINT LeftFoot
			{
				OFFSET -1.702186 -44.677704 -1.254228
				CHANNELS 3 Xrotation Yrotation Zrotation
				JOINT LeftToe
				{
					OFFSET -6.161916 -17.640572 14.505194
					CHANNELS 3 Xrotation Yrotation Zrotation
					End Site
					{
						OFFSET -5.678157 -3.926345 22.625235
					}
				}
			}
		}
	}
	JOINT RightUpLeg
	{
		OFFSET -9.430933 0.934334 -3.256337
		CHANNELS 3 Xrotation Yrotation Zrotation
		JOINT RightLowLeg
		{
			OFFSET 2.329136 -45.594212 -12.639401
			CHANNELS 3 Xrotation Yrotation Zrotation
			JOINT RightFoot
			{
				OFFSET 6.663393 -40.696499 -17.319733
				CHANNELS 3 Xrotation Yrotation Zrotation
				JOINT RightToe
				{
					OFFSET -2.983660 -20.969744 10.532057
					CHANNELS 3 Xrotation Yrotation Zrotation
					End Site
					{
						OFFSET -9.435523 -9.480111 19.510368
					}
				}
			}
		}
	}
}
MOTION
Frames: 14
Frame Time: 0.033333
0.071850 106.493607 -1.111726 -1.678313 18.930119 4.649515 2.815430 -0.950726 -0.626527 4.728443 0.799942 2.770885 -2.359999 -6.436085 -2.864292 -4.602172 12.107982 -8.470445 -0.000001 0.000003 -0.000001 19.452128 3.183443 -47.646396 65.201648 -2.283418 -86.930475 30.044346 24.938134 3.984505 0.000002 -0.000002 0.000000 4.811709 -9.475219 38.479182 49.524390 -6.771477 86.077589 42.095450 -20.361972 22.235087 0.000000 -0.000002 0.000002 17.490555 0.873001 11.729017 -2.511249 2.658980 -6.425483 -20.368184 -3.467922 -3.895144 -0.000000 -0.000001 0.000001 -11.101715 3.792453 -7.602911 5.305186 -2.948779 4.253995 -5.075657 -2.933865 -7.750843 0.000002 0.000001 -0.000004 
0.062642 106.497353 -1.117120 -1.822795 18.634797 4.752879 3.068271 -0.959572 -0.723911 5.031679 0.837575 2.739382 -2.717925 -5.985129 -2.845455 -4.643750 11.876096 -8.330315 -0.000001 0.000002 -0.000000 19.609760 2.255184 -47.358069 65.150688 -2.419051 -86.535655 29.794808 24.813606 4.122041 0.000001 -0.000002 -0.000001 4.793843 -9.668914 38.458545 49.546903 -6.676939 86.036888 42.056931 -20.215140 21.851594 -0.000001 0.000000 0.000003 17.546638 0.906041 11.711061 -1.929319 2.492354 -6.306892 -20.420461 -3.427698 -3.905372 -0.000001 -0.000002 0.000001 -10.819532 3.743530 -7.655396 5.636095 -2.944074 4.373754 -5.251410 -2.266962 -7.452892 -0.000000 0.000002 -0.000003 
0.046364 106.495407 -1.117478 -2.146270 18.555339 4.753589 3.839609 -1.030627 -0.481992 3.769889 0.907917 2.300413 -1.816525 -6.012006 -2.516253 -4.521224 11.816734 -8.213610 0.000001 0.000003 -0.000000 19.647761 2.137893 -47.266709 65.201355 -2.600979 -86.264593 29.726937 24.774187 4.121399 0.000000 0.000002 -0.000000 4.825893 -9.628579 38.520460 49.562462 -6.731112 85.866953 42.171094 -20.042422 21.506544 0.000001 -0.000004 0.000005 17.284890 0.864074 11.653501 -1.263073 2.311760 -6.056574 -20.940569 -3.226047 -3.936002 0.000001 -0.000001 0.000001 -10.822769 3.735931 -7.638371 6.397909 -2.831494 4.770426 -5.752841 -2.195504 -7.613035 0.000001 -0.000001 -0.000003 
0.023797 106.491974 -1.117419 -2.278597 18.156996 4.834175 3.828616 -1.002953 -0.547545 3.344094 0.976072 2.073972 -1.389770 -5.752329 -2.322692 -4.211747 11.728165 -8.107906 -0.000001 -0.000000 0.000001 19.455362 2.082165 -47.382019 64.955003 -2.691507 -86.549855 30.188685 24.438664 3.556744 0.000000 0.000000 -0.000003 4.476366 -10.210394 38.712993 49.472583 -7.217504 86.314576 42.616989 -19.617746 22.321862 -0.000001 0.000001 -0.000000 17.294964 0.762018 11.561634 -0.878019 2.271281 -5.869330 -21.310142 -3.013088 -3.851628 0.000001 -0.000001 0.000001 -11.182504 3.902716 -7.941130 7.393027 -2.746841 5.370798 -6.089552 -1.900290 -7.554142 0.000002 -0.000001 -0.000005 
-0.014248 106.477509 -1.120264 -2.131195 17.983401 4.697401 4.056574 -1.015692 -0.356617 2.984625 0.973869 1.924221 -1.275658 -5.661206 -2.225451 -3.871827 11.573504 -8.029289 -0.000001 0.000005 0.000001 19.192842 2.086304 -47.234310 64.735249 -3.016748 -86.775381 30.776392 24.244877 3.035715 0.000000 -0.000003 -0.000002 4.337949 -9.764445 38.594759 49.220058 -7.351044 86.772902 42.702971 -19.302326 22.628596 -0.000001 0.000003 0.000006 17.432110 0.861801 11.830496 -0.633589 2.205270 -5.727139 -21.332443 -3.226926 -4.036613 -0.000000 -0.000002 0.000000 -11.199863 3.858683 -7.902752 7.576091 -2.703469 5.716356 -6.098332 -1.971227 -7.538979 -0.000000 0.000004 -0.000003 
-0.050903 106.458061 -1.114786 -1.705883 17.548366 4.702197 3.812270 -0.981932 -0.500953 2.398246 1.042928 1.630416 -0.996800 -5.626202 -1.964507 -3.564349 11.665834 -8.053629 0.000000 0.000003 0.000001 19.205754 2.140824 -47.017472 64.930053 -3.391162 -86.514338 30.434210 24.575378 2.679172 -0.000000 -0.000002 0.000000 4.503498 -9.469630 38.521393 49.108903 -6.860735 86.197704 42.503417 -19.865458 22.878200 0.000003 0.000000 0.000003 17.534337 0.939795 11.815992 -0.855721 2.240139 -5.755070 -21.584180 -3.047277 -4.038015 0.000000 -0.000000 0.000001 -11.278315 3.885133 -8.055224 7.608414 -2.660669 5.889869 -6.250643 -1.567586 -7.296421 -0.000001 0.000000 -0.000003 
-0.107200 106.427948 -1.111435 -1.934641 17.143225 4.701690 4.336142 -1.021416 -0.403416 1.768973 1.110819 1.350055 -0.507670 -5.510036 -1.742892 -3.533341 11.577000 -7.998165 -0.000000 0.000005 -0.000000 19.228238 1.930326 -46.906283 64.904883 -3.859744 -85.903890 30.223205 24.499170 2.427999 0.000001 -0.000003 0.000002 4.535285 -9.206128 38.705944 48.918590 -6.335038 85.811853 42.055507 -19.989556 23.061382 0.000001 -0.000002 0.000002 17.268750 0.931160 11.776461 0.180907 1.928281 -5.348542 -21.707396 -2.811264 -3.951159 0.000002 -0.000001 0.000000 -10.949231 3.825260 -7.981938 7.858608 -2.599526 6.113486 -6.414718 -1.296609 -7.197352 0.000000 -0.000001 -0.000003 
-0.174337 106.389648 -1.104377 -1.865832 16.966716 4.626724 4.841992 -1.058087 -0.221670 0.116335 1.108981 1.032561 0.798629 -5.495635 -1.452990 -3.500371 11.552257 -8.053876 -0.000001 0.000002 0.000001 19.249541 1.291146 -46.459558 65.012999 -4.562549 -85.294986 29.592853 24.493017 2.166943 0.000003 -0.000002 0.000000 4.602414 -8.864254 38.716733 48.700287 -5.625478 85.509863 41.555380 -20.197209 23.355265 0.000000 -0.000004 -0.000000 16.164210 0.838175 11.468633 2.141505 1.543000 -4.377265 -22.874245 -2.805328 -4.205042 -0.000000 -0.000001 -0.000000 -11.306152 3.892964 -8.068308 8.843690 -2.527133 6.776373 -6.951038 -1.046511 -7.332752 -0.000000 0.000002 -0.000003 
-0.245405 106.350464 -1.097799 -1.969823 16.814005 4.596706 5.044283 -1.058963 -0.185287 -0.173363 1.074979 0.991830 1.023940 -5.478599 -1.399127 -3.545414 11.501852 -8.090090 -0.000001 0.000003 -0.000000 19.190024 1.107458 -46.343889 64.980794 -4.998428 -85.119948 29.586368 24.458825 2.164665 0.000002 -0.000003 -0.000005 4.533714 -8.961596 38.650514 48.585069 -5.264958 85.744597 41.591037 -20.182669 23.256157 -0.000002 0.000000 0.000003 15.424497 0.843969 11.219118 3.694162 1.145191 -3.579453 -23.309141 -2.898693 -4.399198 0.000001 -0.000001 0.000000 -11.157943 3.829543 -8.017495 9.074969 -2.467563 7.011220 -7.010389 -0.906664 -7.285552 -0.000000 -0.000001 -0.000003 
-0.344547 106.296082 -1.080850 -1.838320 16.285094 4.516669 5.249698 -1.048948 -0.401599 -0.923964 1.069188 0.829238 1.347576 -5.484098 -1.152852 -3.224652 11.411796 -8.041936 0.000000 0.000003 -0.000000 19.082698 1.297859 -46.149973 64.992795 -5.583660 -84.698239 29.899102 24.735482 0.918831 -0.000000 -0.000002 0.000000 4.598474 -8.106521 38.476716 48.243860 -4.468497 85.227811 41.780267 -20.325630 23.859326 0.000001 -0.000003 0.000003 14.848312 0.838573 11.226878 4.656839 0.813074 -3.253431 -23.616132 -2.564767 -4.274156 -0.000001 -0.000001 0.000000 -10.955687 3.747216 -7.667657 8.916998 -2.390637 6.793045 -6.686513 -0.450725 -6.800698 -0.000002 0.000002 -0.000000 
-0.456209 106.218819 -1.061942 -1.380951 15.688755 4.486633 5.485611 -1.026707 -0.505301 -0.943056 1.115592 0.654435 1.356684 -5.252046 -0.906344 -3.117686 11.264684 -8.111143 0.000000 0.000003 -0.000000 18.998419 0.813576 -45.533968 65.009126 -6.653671 -83.956125 29.807980 24.699820 0.656360 -0.000000 -0.000002 0.000000 4.629314 -7.537685 38.091043 47.976847 -3.799231 85.077704 42.384807 -20.203414 23.889065 -0.000000 -0.000005 0.000006 13.796818 0.849721 10.982147 5.993945 0.479164 -2.714955 -23.403669 -2.039484 -3.931943 -0.000001 -0.000001 0.000000 -11.184183 3.680944 -7.561930 9.481780 -2.260905 6.809385 -6.649525 0.269382 -6.394207 -0.000003 0.000000 -0.000001 
-0.572361 106.135223 -1.041085 -1.269521 15.438160 4.336665 5.842458 -1.059661 -0.384224 -1.641736 1.067531 0.581475 1.836280 -4.952149 -0.852500 -3.523500 11.129903 -8.145170 0.000000 0.000003 -0.000000 19.115311 0.232319 -44.769578 65.187162 -7.846451 -82.377211 29.288025 24.918639 0.448581 0.000001 0.000000 -0.000005 4.733806 -7.554626 37.919055 47.766730 -2.837945 84.216437 42.694276 -20.389716 23.819228 -0.000002 0.000001 -0.000000 12.532204 0.851019 10.724154 7.956078 0.042403 -1.778628 -23.449691 -1.689524 -3.739704 -0.000000 0.000000 0.000001 -11.130889 3.547153 -7.284256 9.818464 -2.293458 6.895711 -6.842949 0.795610 -6.329911 -0.000001 0.000000 -0.000002 
-0.708510 106.025154 -1.009418 -0.364735 14.982773 4.125056 5.355382 -1.006010 -0.551499 -1.297763 0.963188 0.796816 1.701421 -4.997205 -0.940531 -4.012122 10.887365 -8.224629 -0.000001 0.000003 -0.000000 19.010769 -0.455372 -43.776629 65.086648 -9.362692 -80.753962 29.261319 24.817561 -0.338095 0.000001 0.000001 -0.000000 4.722359 -6.776680 37.248741 47.162029 -1.764946 83.641240 43.591866 -19.735403 23.556875 0.000005 0.000000 0.000000 10.132791 0.802350 10.290092 11.030963 -0.362107 -0.455418 -23.598382 -1.590755 -3.595272 -0.000000 -0.000002 0.000000 -11.715597 3.475329 -7.138385 10.453746 -2.580736 7.132303 -7.294957 1.750454 -6.252838 -0.000000 0.000000 -0.000003 
-0.870015 105.912804 -0.971170 -0.071000 14.727747 4.167659 6.440166 -1.033396 -0.677906 -1.413918 0.822047 0.990085 1.107998 -5.309945 -1.188238 -3.607043 10.677981 -7.987905 -0.000001 0.000002 0.000001 18.918202 -1.506518 -42.519792 65.056008 -11.212789 -77.641246 28.147334 24.164012 0.938806 0.000002 -0.000002 -0.000005 4.931182 -5.047830 36.621972 46.284476 -0.072234 82.088629 43.672858 -18.981799 21.647738 0.000000 -0.000001 0.000002 7.628776 0.709070 9.556025 15.516822 -1.125772 1.445837 -22.633010 -1.501563 -3.269094 -0.000000 -0.000001 0.000001 -12.074309 3.478242 -7.276937 11.242274 -2.517426 7.848816 -7.670472 2.312691 -6.138124 0.000003 0.000002 -0.000003 
